<?xml version="1.0" encoding="utf-8"?>
<!-- Generator: Adobe Illustrator 25.0.1, SVG Export Plug-In . SVG Version: 6.00 Build 0)  -->
<svg version="1.1" id="Calque_1" xmlns="http://www.w3.org/2000/svg" xmlns:xlink="http://www.w3.org/1999/xlink" x="0px" y="0px"
	 viewBox="0 0 595.28 841.89" style="enable-background:new 0 0 595.28 841.89;" xml:space="preserve">
<style type="text/css">
	.st0{fill:#81BC45;}
	.st1{fill:#2C2834;}
	.st2{fill:#1A1722;}
	.st3{fill:#565261;}
	.st4{fill:#3B3944;}
	.st5{fill:#607F40;}
	.st6{fill:#020203;}
</style>
<g>
	<path class="st0" d="M437.56,371.42l-63.15-5.12c-9.39-0.76-16.4-8.99-15.64-18.38c0.36-4.49,2.48-8.65,5.9-11.59l48.08-41.24
		c-17.42-24.78-42.56-43.09-71.48-52.05l-24.4,58.54c-3.63,8.7-13.62,12.81-22.32,9.18c-4.16-1.73-7.46-5.04-9.18-9.18l-24.34-58.49
		c-28.93,8.97-54.07,27.27-71.48,52.05l48.08,41.24c7.16,6.13,7.99,16.9,1.85,24.06c-2.93,3.42-7.1,5.54-11.59,5.9l-63.15,5.12
		c0,0.73-0.11,1.42-0.11,2.15c-0.02,29.57,9.63,58.33,27.48,81.92l54.02-32.96c8.05-4.91,18.55-2.36,23.46,5.68
		c2.35,3.85,3.07,8.46,2.03,12.84l-14.66,61.61c28.63,9.94,59.78,9.94,88.4,0l-14.66-61.61c-2.18-9.17,3.47-18.37,12.65-20.56
		c4.38-1.04,8.99-0.32,12.84,2.03l54,32.9c17.84-23.59,27.49-52.35,27.48-81.92C437.67,372.84,437.58,372.14,437.56,371.42z
		 M301.14,399.17c-14.14,0-25.6-11.46-25.6-25.6s11.46-25.6,25.6-25.6c14.14,0,25.6,11.46,25.6,25.6S315.28,399.17,301.14,399.17z"
		/>
	<path class="st1" d="M301.14,126.1c-136.67,0-247.47,110.8-247.47,247.47s110.8,247.47,247.47,247.47s247.47-110.8,247.47-247.47
		S437.81,126.1,301.14,126.1z M301.14,510.1c-75.41,0-136.53-61.12-136.53-136.53s61.12-136.53,136.53-136.53
		s136.53,61.12,136.53,136.53S376.55,510.1,301.14,510.1z"/>
	<path class="st2" d="M462.81,186.29c89.32,103.4,77.92,259.63-25.48,348.94c-92.89,80.25-230.57,80.25-323.46,0
		c89.28,103.44,245.5,114.93,348.95,25.64s114.93-245.5,25.64-348.94C480.55,202.77,471.98,194.21,462.81,186.29z"/>
	
		<rect x="220.09" y="137.58" transform="matrix(0.9511 -0.309 0.309 0.9511 -35.2772 78.0014)" class="st3" width="17.07" height="25.6"/>
	
		<rect x="365.14" y="583.92" transform="matrix(0.9511 -0.309 0.309 0.9511 -166.0947 144.6607)" class="st4" width="17.07" height="25.6"/>
	<rect x="292.61" y="126.1" class="st3" width="17.07" height="25.6"/>
	<rect x="292.61" y="595.43" class="st4" width="17.07" height="25.6"/>
	
		<rect x="154.67" y="170.92" transform="matrix(0.8089 -0.5879 0.5879 0.8089 -76.8275 131.0565)" class="st3" width="17.07" height="25.6"/>
	
		<rect x="430.52" y="550.61" transform="matrix(0.8089 -0.5879 0.5879 0.8089 -247.3445 365.7827)" class="st4" width="17.07" height="25.6"/>
	
		<rect x="102.76" y="222.84" transform="matrix(0.5879 -0.8089 0.8089 0.5879 -144.7546 187.1271)" class="st3" width="17.07" height="25.6"/>
	
		<rect x="482.46" y="498.7" transform="matrix(0.5879 -0.8089 0.8089 0.5879 -211.4302 607.959)" class="st4" width="17.07" height="25.6"/>
	
		<rect x="69.41" y="288.25" transform="matrix(0.309 -0.9511 0.9511 0.309 -232.4631 282.1633)" class="st3" width="17.07" height="25.6"/>
	
		<rect x="515.79" y="433.33" transform="matrix(0.309 -0.9511 0.9511 0.309 -61.983 806.9516)" class="st4" width="17.07" height="25.6"/>
	<rect x="53.67" y="365.03" class="st3" width="25.6" height="17.07"/>
	<rect x="523.01" y="365.03" class="st4" width="25.6" height="17.07"/>
	<g>
		
			<rect x="65.19" y="437.55" transform="matrix(0.951 -0.3091 0.3091 0.951 -134.0677 45.9537)" class="st3" width="25.6" height="17.07"/>
		
			<rect x="98.47" y="502.95" transform="matrix(0.809 -0.5878 0.5878 0.809 -279.3997 163.0947)" class="st3" width="25.6" height="17.07"/>
		
			<rect x="426.26" y="175.18" transform="matrix(0.5878 -0.809 0.809 0.5878 32.3526 430.9298)" class="st3" width="25.6" height="17.07"/>
		
			<rect x="360.88" y="141.85" transform="matrix(0.3091 -0.951 0.951 0.3091 115.1579 459.2788)" class="st3" width="25.6" height="17.07"/>
	</g>
	<g>
		<path class="st4" d="M539.14,305.22L533.85,289l-16.72,5.44c1.24,5.58,2.31,11.21,3.17,16.92L539.14,305.22z"/>
		<path class="st4" d="M506.36,235.01l-10.03-13.81l-5.82,4.27c2.84,4.97,5.58,10.03,8.08,15.22L506.36,235.01z"/>
		<path class="st4" d="M148.78,568.76l13.81,10.03l5.65-7.77c-5.2-2.5-10.24-5.24-15.22-8.08L148.78,568.76z"/>
		<path class="st4" d="M216.55,606.28l16.21,5.28l6.12-18.84c-5.71-0.85-11.34-1.93-16.92-3.17L216.55,606.28z"/>
	</g>
	<g>
		<path class="st3" d="M514.79,313.13l5.5-1.79c-0.85-5.71-1.93-11.34-3.17-16.92l-7.62,2.48L514.79,313.13z"/>
		<path class="st3" d="M485.66,250.06l12.94-9.39c-2.5-5.2-5.24-10.24-8.08-15.22l-14.89,10.82L485.66,250.06z"/>
		<path class="st3" d="M163.83,548.05l-10.82,14.89c4.98,2.84,10.03,5.58,15.22,8.08l9.39-12.94L163.83,548.05z"/>
		<path class="st3" d="M224.46,581.93l-2.48,7.62c5.58,1.24,11.21,2.31,16.92,3.17l1.79-5.5L224.46,581.93z"/>
		<path class="st3" d="M301.14,194.37c-98.97,0-179.2,80.23-179.2,179.2s80.23,179.2,179.2,179.2s179.2-80.23,179.2-179.2
			S400.11,194.37,301.14,194.37z M301.14,510.1c-75.41,0-136.53-61.12-136.53-136.53s61.12-136.53,136.53-136.53
			s136.53,61.12,136.53,136.53S376.55,510.1,301.14,510.1z"/>
	</g>
	<path class="st4" d="M423.38,242.79c67.61,72.12,63.96,185.4-8.17,253.02c-68.86,64.55-175.99,64.55-244.85,0
		c67.41,72.32,180.69,76.3,253.02,8.88s76.3-180.69,8.88-253.02C429.41,248.61,426.44,245.64,423.38,242.79z"/>
	<g>
		<path class="st5" d="M378.79,261.47c-11.49-8.02-24.16-14.23-37.55-18.38l-4.7,11.27C350.86,255.11,365.03,257.49,378.79,261.47z"
			/>
		<path class="st5" d="M269.33,263.08l-8.29-19.99c-28.93,8.97-54.07,27.27-71.48,52.05l10.04,8.62
			C219.61,285.29,243.4,271.41,269.33,263.08z"/>
	</g>
	<path class="st6" d="M301.14,185.83c-103.68,0-187.73,84.05-187.73,187.73S197.46,561.3,301.14,561.3s187.73-84.05,187.73-187.73
		C488.75,269.93,404.78,185.95,301.14,185.83z M301.14,544.23c-94.26,0-170.67-76.41-170.67-170.67S206.88,202.9,301.14,202.9
		s170.67,76.41,170.67,170.67C471.7,467.78,395.35,544.12,301.14,544.23z"/>
	<path class="st6" d="M301.14,228.5c-80.12,0-145.07,64.95-145.07,145.07s64.95,145.07,145.07,145.07s145.07-64.95,145.07-145.07
		C446.12,293.48,381.23,228.59,301.14,228.5z M428.56,362.13l-53.44-4.32c-4.69-0.39-8.18-4.52-7.79-9.22
		c0.19-2.23,1.24-4.29,2.93-5.75l40.61-34.84C420.79,324.48,426.84,342.98,428.56,362.13z M329.63,248.88l-20.62,49.49
		c-1.82,4.35-6.81,6.41-11.16,4.59c-2.07-0.86-3.73-2.52-4.59-4.59l-20.62-49.49C291.39,244.47,310.89,244.47,329.63,248.88z
		 M191.39,307.99l40.63,34.86c3.57,3.06,3.99,8.46,0.92,12.03c-1.47,1.71-3.55,2.77-5.79,2.95l-53.44,4.32
		c1.72-19.17,7.77-37.68,17.71-54.16L191.39,307.99L191.39,307.99z M204.85,457.65l45.67-27.86c4.02-2.46,9.28-1.19,11.73,2.83
		c1.18,1.92,1.55,4.23,1.02,6.43l-12.39,52.21c-17.65-7.62-33.37-19.11-46-33.6L204.85,457.65L204.85,457.65z M267.07,496.83
		l12.8-53.83c3.27-13.76-5.23-27.55-18.99-30.83c-6.57-1.56-13.49-0.47-19.25,3.05l-47.22,28.83c-12.75-19.29-20-41.68-20.98-64.78
		l55.11-4.45c14.09-1.15,24.58-13.52,23.42-27.61c-0.55-6.72-3.73-12.94-8.85-17.34l-41.98-36.01
		c14.43-18.05,33.46-31.87,55.08-40.01l21.27,51.06c5.44,13.06,20.42,19.23,33.48,13.79c6.24-2.59,11.2-7.55,13.79-13.79
		l21.27-51.06c21.62,8.14,40.65,21.97,55.08,40.01l-41.93,36.01c-10.73,9.21-11.96,25.37-2.76,36.1c4.39,5.12,10.63,8.3,17.36,8.85
		l55.11,4.45c-0.97,23.1-8.23,45.49-20.98,64.78l-47.28-28.83c-12.07-7.36-27.83-3.55-35.19,8.52c-3.52,5.77-4.62,12.69-3.05,19.27
		l12.8,53.83c-22.26,6.32-45.83,6.32-68.1,0L267.07,496.83L267.07,496.83z M351.38,491.26l-12.42-52.21
		c-1.09-4.58,1.74-9.18,6.32-10.27c2.19-0.52,4.5-0.15,6.43,1.02l45.67,27.86c-12.62,14.5-28.33,25.98-45.98,33.6L351.38,491.26
		L351.38,491.26z"/>
	<path class="st6" d="M335.27,373.57c0-18.85-15.28-34.13-34.13-34.13s-34.13,15.28-34.13,34.13s15.28,34.13,34.13,34.13
		C319.99,407.7,335.27,392.42,335.27,373.57z M301.14,390.63c-9.43,0-17.07-7.64-17.07-17.07c0-9.43,7.64-17.07,17.07-17.07
		c9.43,0,17.07,7.64,17.07,17.07C318.21,383,310.57,390.63,301.14,390.63z"/>
	<path class="st6" d="M301.14,629.57c-141.39,0-256-114.61-256-256s114.61-256,256-256s256,114.61,256,256
		C556.98,514.89,442.46,629.41,301.14,629.57z M301.14,134.63c-131.96,0-238.93,106.97-238.93,238.93S169.18,612.5,301.14,612.5
		s238.93-106.97,238.93-238.93C539.92,241.67,433.04,134.79,301.14,134.63z"/>
	<g>
	</g>
	<g>
	</g>
	<g>
	</g>
	<g>
	</g>
	<g>
	</g>
	<g>
	</g>
	<g>
	</g>
	<g>
	</g>
	<g>
	</g>
	<g>
	</g>
	<g>
	</g>
	<g>
	</g>
	<g>
	</g>
	<g>
	</g>
	<g>
	</g>
</g>
</svg>
