<?xml version="1.0" encoding="utf-8"?>
<!-- Generator: Adobe Illustrator 25.0.1, SVG Export Plug-In . SVG Version: 6.00 Build 0)  -->
<svg version="1.1" id="Calque_1" xmlns="http://www.w3.org/2000/svg" xmlns:xlink="http://www.w3.org/1999/xlink" x="0px" y="0px"
	 viewBox="0 0 595.28 841.89" style="enable-background:new 0 0 595.28 841.89;" xml:space="preserve">
<style type="text/css">
	.st0{fill:#020203;}
</style>
<g>
	<g>
		<g>
			<path class="st0" d="M297.64,173.88c-132.55,0-240,107.45-240,240s107.45,240,240,240s240-107.45,240-240
				C537.49,281.4,430.12,174.03,297.64,173.88z M512.97,475.44l-15.03-4.89l-4.95,15.2l15.1,4.9
				c-6.24,17.03-14.53,33.24-24.69,48.27l-12.8-9.28l-9.41,12.94l12.7,9.23c-11.18,14.27-24.04,27.14-38.29,38.34l-9.23-12.7
				l-12.94,9.41l9.28,12.8c-15.03,10.14-31.24,18.42-48.26,24.66l-4.9-15.1l-15.2,4.95l4.89,15.03c-17.45,5-35.44,7.84-53.58,8.47
				v-15.8h-16v15.8c-18.13-0.63-36.11-3.48-53.55-8.47l4.89-15.03l-15.2-4.95l-4.94,15.1c-17.03-6.24-33.24-14.53-48.27-24.69
				l9.28-12.8l-12.94-9.41l-9.23,12.7c-14.26-11.19-27.13-24.06-38.32-38.32l12.7-9.23l-9.41-12.94l-12.8,9.28
				c-10.12-15.02-18.39-31.22-24.61-48.23l15.1-4.9l-4.95-15.2l-15.03,4.89c-5.01-17.45-7.87-35.44-8.51-53.58h15.8v-16h-15.8
				c0.63-18.13,3.48-36.11,8.47-53.55l15.03,4.89l4.95-15.2l-15.06-4.94c6.24-17.03,14.53-33.24,24.69-48.27l12.8,9.28l9.41-12.94
				l-12.78-9.22c11.19-14.26,24.06-27.13,38.32-38.32l9.23,12.7l12.94-9.41l-9.28-12.8c15.03-10.13,31.24-18.4,48.26-24.62l4.9,15.1
				l15.2-4.95l-4.89-15.03c17.45-5.01,35.44-7.87,53.58-8.51v15.8h16v-15.8c18.13,0.63,36.11,3.48,53.55,8.47l-4.89,15.03l15.2,4.95
				l4.94-15.06c17.03,6.24,33.24,14.53,48.27,24.69l-9.28,12.8l12.94,9.41l9.23-12.7c14.26,11.19,27.13,24.06,38.32,38.32
				l-12.7,9.23l9.41,12.94l12.8-9.28c10.14,15.01,18.41,31.19,24.65,48.19l-15.1,4.9l4.95,15.2l15.03-4.89
				c5,17.45,7.84,35.44,8.47,53.58h-15.8v16h15.8C520.8,440.01,517.96,458,512.97,475.44z"/>
		</g>
	</g>
	<g>
		<g>
			<path class="st0" d="M297.64,237.88c-97.2,0-176,78.8-176,176s78.8,176,176,176s176-78.8,176-176
				C473.53,316.73,394.79,237.99,297.64,237.88z M297.64,573.88c-88.37,0-160-71.63-160-160s71.63-160,160-160s160,71.63,160,160
				C457.54,502.21,385.96,573.78,297.64,573.88z"/>
		</g>
	</g>
	<g>
		<g>
			<path class="st0" d="M297.64,277.88c-75.11,0-136,60.89-136,136s60.89,136,136,136s136-60.89,136-136
				C433.55,338.81,372.71,277.97,297.64,277.88z M400.51,352.42c9.3,15.44,14.97,32.79,16.58,50.74l-50.1-4.05
				c-4.4-0.37-7.67-4.24-7.3-8.64c0.18-2.09,1.16-4.02,2.75-5.39L400.51,352.42z M324.35,296.99l-19.33,46.4
				c-1.7,4.08-6.38,6.01-10.46,4.31c-1.95-0.81-3.49-2.36-4.31-4.31l-19.33-46.4C288.49,292.85,306.78,292.85,324.35,296.99z
				 M194.77,352.42l38.07,32.67c3.35,2.88,3.74,7.93,0.87,11.28c-1.37,1.6-3.32,2.6-5.43,2.77l-50.1,4.05
				C179.79,385.22,185.46,367.86,194.77,352.42z M262.13,475.28l-11.62,48.94c-16.55-7.14-31.29-17.91-43.13-31.5h-0.02l42.82-26.12
				c3.77-2.3,8.69-1.11,11,2.66C262.28,471.06,262.62,473.22,262.13,475.28z M344.76,524.22h-0.02l-11.64-48.94
				c-1.02-4.3,1.63-8.61,5.93-9.64c2.05-0.49,4.22-0.15,6.02,0.95l42.82,26.12C376.03,506.31,361.3,517.07,344.76,524.22z
				 M353.4,452.93c-11.32-6.9-26.08-3.33-32.99,7.99c-3.3,5.41-4.33,11.9-2.86,18.06l12,50.46c-20.87,5.92-42.97,5.92-63.84,0h-0.02
				l12-50.46c3.07-12.89-4.9-25.83-17.8-28.9c-6.16-1.46-12.65-0.44-18.05,2.86l-44.27,27.02c-11.95-18.08-18.75-39.07-19.66-60.73
				l51.66-4.18c13.21-1.08,23.04-12.67,21.96-25.88c-0.52-6.3-3.5-12.14-8.29-16.26l-39.36-33.76
				c13.52-16.92,31.37-29.88,51.64-37.51l19.94,47.86c5.1,12.24,19.15,18.03,31.38,12.93c5.85-2.43,10.49-7.08,12.93-12.93
				l19.94-47.86c20.27,7.63,38.11,20.59,51.64,37.51l-39.31,33.76c-10.06,8.63-11.22,23.78-2.59,33.84
				c4.12,4.8,9.97,7.78,16.27,8.29l51.66,4.18c-0.91,21.65-7.71,42.65-19.66,60.73L353.4,452.93z"/>
		</g>
	</g>
	<g>
		<g>
			<path class="st0" d="M297.64,381.88c-17.67,0-32,14.33-32,32s14.33,32,32,32s32-14.33,32-32S315.31,381.88,297.64,381.88z
				 M297.64,429.88c-8.84,0-16-7.16-16-16s7.16-16,16-16s16,7.16,16,16S306.47,429.88,297.64,429.88z"/>
		</g>
	</g>
	<g>
	</g>
	<g>
	</g>
	<g>
	</g>
	<g>
	</g>
	<g>
	</g>
	<g>
	</g>
	<g>
	</g>
	<g>
	</g>
	<g>
	</g>
	<g>
	</g>
	<g>
	</g>
	<g>
	</g>
	<g>
	</g>
	<g>
	</g>
	<g>
	</g>
</g>
</svg>
